<svg
  xmlns="http://www.w3.org/2000/svg"
  xmlns:xlink="http://www.w3.org/1999/xlink"
  width="0.472in" height="0.5in">
  <path fill-rule="evenodd" fill="#4F1195"
        d="M33.997,20.431 L30.480,2.833 C26.776,1.168 22.653,2.577 19.878,3.343 C19.875,3.344 19.873,3.344 19.871,3.345 C18.730,3.666 18.100,3.824 17.947,4.817 C17.904,5.101 17.996,6.124 18.104,7.112 C19.202,6.839 20.242,6.867 21.197,7.202 C21.729,7.386 22.205,7.659 22.612,8.013 L22.680,8.072 L20.991,9.854 L20.927,9.800 C20.716,9.622 20.480,9.489 20.225,9.404 C19.733,9.239 19.184,9.236 18.593,9.395 C18.533,9.412 18.475,9.431 18.417,9.450 L18.259,8.878 C18.294,9.078 18.203,9.282 18.023,9.384 C17.894,9.457 17.775,9.537 17.666,9.626 C17.359,9.878 17.116,10.183 16.947,10.531 C16.776,10.881 16.680,11.283 16.662,11.728 C16.642,12.175 16.704,12.658 16.844,13.166 C17.125,14.185 17.610,14.924 18.286,15.360 C18.735,15.651 19.235,15.790 19.778,15.781 C20.004,15.777 20.202,15.929 20.261,16.144 L20.785,18.048 C20.513,18.103 20.244,18.142 19.979,18.160 C19.627,18.185 19.283,18.177 18.949,18.136 C18.229,18.049 17.562,17.824 16.967,17.467 C16.373,17.111 15.847,16.621 15.405,16.011 C14.964,15.403 14.625,14.678 14.399,13.856 C14.170,13.025 14.087,12.223 14.154,11.473 C14.220,10.721 14.421,10.027 14.753,9.411 C15.084,8.794 15.545,8.255 16.123,7.807 C16.585,7.449 17.124,7.164 17.727,6.955 L17.071,4.601 L16.704,3.228 C16.704,3.228 16.696,3.188 16.686,3.141 L16.608,2.845 C15.734,0.596 8.213,2.470 2.923,4.105 L2.923,4.102 C2.394,4.259 1.763,4.412 1.763,4.412 C1.763,4.412 2.335,4.028 2.781,3.393 L2.626,2.616 C2.599,2.480 2.464,2.394 2.327,2.423 C2.738,2.059 2.921,1.467 2.705,0.894 C2.487,0.319 1.886,-0.052 1.268,0.004 C0.418,0.081 -0.153,0.864 0.013,1.667 C0.120,2.185 0.506,2.576 0.984,2.719 L0.956,2.726 C0.819,2.755 0.731,2.889 0.758,3.025 L7.190,35.210 C7.269,35.602 7.575,35.926 7.974,35.989 C8.654,36.096 9.199,35.509 9.072,34.874 L7.366,26.336 C6.593,26.219 5.919,26.366 5.919,26.366 C5.919,26.366 7.082,25.626 7.500,25.462 C7.510,25.458 7.520,25.456 7.530,25.452 C10.731,23.800 16.499,21.925 19.573,21.846 C19.573,21.844 19.572,21.842 19.572,21.842 C19.572,21.842 21.105,21.793 21.906,22.073 C21.906,22.073 21.014,22.143 20.464,22.525 C20.572,23.016 20.839,23.285 20.839,23.285 C22.595,25.360 28.185,19.857 33.741,20.701 C33.897,20.724 34.028,20.584 33.997,20.431 ZM24.778,15.174 C24.561,15.741 24.221,16.261 23.770,16.719 C23.015,17.487 22.083,18.013 20.914,18.304 C20.913,18.303 20.289,16.019 20.289,16.019 C20.343,16.007 20.343,16.008 20.397,15.993 C21.018,15.826 21.530,15.529 21.919,15.110 C22.108,14.907 22.260,14.686 22.371,14.455 L22.403,14.389 L24.812,15.087 L24.778,15.174 Z"/>
</svg>
